<svg id="Layer_1" data-name="Layer 1" xmlns="http://www.w3.org/2000/svg" xmlns:xlink="http://www.w3.org/1999/xlink" viewBox="0 0 30 30"><defs><style>.cls-1{fill:#fff;}.cls-1,.cls-4,.cls-5,.cls-6{fill-rule:evenodd;}.cls-2{mask:url(#mask);}.cls-3{fill:#ebecf2;}.cls-4,.cls-5{fill:#dee1e3;}.cls-5{opacity:0.4;isolation:isolate;}.cls-6{fill:#c5c6cc;}</style><mask id="mask" x="1.69" y="1.6" width="26.62" height="26.8" maskUnits="userSpaceOnUse"><g id="mask1"><path class="cls-1" d="M23.28,6.24a1.09,1.09,0,0,1,.52-.16C24.61,6,27,6,27.47,6.84s-.72,2.88-1.17,3.56a1.18,1.18,0,0,1-.4.37L21,13.58l.67,13.68a.53.53,0,0,1-.25.47l-1,.6a.56.56,0,0,1-.44,0l-.75-.26a.55.55,0,0,1-.3-.26l-5.16-10.1-5.1,2.94-.55,3.74a.51.51,0,0,1-.52.44h-.4a.51.51,0,0,1-.46-.3L5.34,21.34c-1,0-1.9-.06-2.15-.49s.13-1.27.65-2.11l-2-2.82a.54.54,0,0,1,0-.56L2,15a.52.52,0,0,1,.64-.23l3.49,1.39,5.11-3L5.06,3.76A.53.53,0,0,1,5,3.37l.15-.78a.53.53,0,0,1,.26-.36l1-.56a.52.52,0,0,1,.54,0L18.39,9.06Z"/></g></mask></defs><title>Plane</title><path class="cls-1" d="M23.28,6.24a1.09,1.09,0,0,1,.52-.16C24.61,6,27,6,27.47,6.84s-.72,2.88-1.17,3.56a1.18,1.18,0,0,1-.4.37L21,13.58l.67,13.68a.53.53,0,0,1-.25.47l-1,.6a.56.56,0,0,1-.44,0l-.75-.26a.55.55,0,0,1-.3-.26l-5.16-10.1-5.1,2.94-.55,3.74a.51.51,0,0,1-.52.44h-.4a.51.51,0,0,1-.46-.3L5.34,21.34c-1,0-1.9-.06-2.15-.49s.13-1.27.65-2.11l-2-2.82a.54.54,0,0,1,0-.56L2,15a.52.52,0,0,1,.64-.23l3.49,1.39,5.11-3L5.06,3.76A.53.53,0,0,1,5,3.37l.15-.78a.53.53,0,0,1,.26-.36l1-.56a.52.52,0,0,1,.54,0L18.39,9.06Z"/><g class="cls-2"><rect class="cls-3" x="9.75" y="10.05" width="9.93" height="1.05" transform="translate(-3.32 8.78) rotate(-30)"/><path class="cls-4" d="M21.46,27.73a.53.53,0,0,0,.25-.47L21,13.13l-7.39,4.26L19,27.85a.55.55,0,0,0,.3.26l.75.26a.56.56,0,0,0,.44,0Z"/><path class="cls-5" d="M5.39,21.26l-.07,0,1.46,3.26a.51.51,0,0,0,.46.3h.4a.51.51,0,0,0,.52-.44l.58-3.95-.37.21a1.25,1.25,0,0,1-.36.15A21.1,21.1,0,0,1,5.39,21.26Z"/><path class="cls-6" d="M13.72,17.58,21,13.37,21.11,15l-6,5.28Z"/><path class="cls-4" d="M28.31,9.38,4.48,23.14s-.71-1.28-1.29-2.29l0,0a9.66,9.66,0,0,0,5.37-1.23L25,10.06a5.49,5.49,0,0,0,2.53-3C28,8.07,28.31,9.38,28.31,9.38Z"/></g></svg>